<?xml version="1.0" encoding="utf-8"?>
<svg viewBox="0 0 500 500" xmlns="http://www.w3.org/2000/svg">
  <defs>
    <path d="M640 320C640 496.61 496.52 640 319.78 640C143.05 640 -0.43 496.61 -0.43 320C-0.43 143.39 143.05 0 319.78 0C496.52 0 640 143.39 640 320Z" id="bqgfFmobW"/>
    <path d="M1423.69 1423.69C1423.69 2032.83 929.14 2527.37 320 2527.37C-289.14 2527.37 -783.69 2032.83 -783.69 1423.69C-783.69 814.55 -289.14 320 320 320C929.14 320 1423.69 814.55 1423.69 1423.69Z" id="c2p7qwmig"/>
    <path d="M307.88 123.94L332.12 123.94L332.12 311.82L307.88 311.82L307.88 123.94Z" id="bUPWBOef"/>
    <path d="M403.33 176.06L403.33 200.3L236.67 200.3L236.67 176.06L403.33 176.06Z" id="cc5AlY3GR"/>
    <path d="M383.77 377.84C387.36 383.57 387.15 397.38 383.34 405.68C379.32 414.76 361.13 432.72 345.27 443.18C326.66 455.42 293.24 472.4 268.06 482.27C236.76 494.51 226.18 499.84 209.47 511.48C173.09 536.95 153 569.12 140.31 622.82C138.4 630.32 136.92 639.6 136.92 642.95C136.92 643.39 136.92 645.56 136.92 649.47C199.74 649.47 234.64 649.47 241.62 649.47C338.92 649.47 351.61 648.87 344.21 644.53C339.98 642.16 324.75 621.44 320.31 612.35C316.93 605.25 315.87 598.93 315.66 586.3C315.66 570.9 316.29 568.33 323.69 553.73C330.89 539.51 334.9 535.17 367.27 505.36C411.69 464.7 428.18 443.58 436.22 417.52C448.28 378.63 420.78 349.22 356.9 332.83C336.81 327.5 283.72 319.81 268.7 320C267.74 320 262.95 320 254.32 320L269.55 323.75C336.1 344.42 374.18 362.44 383.77 377.84Z" id="afV4KLqOC"/>
  </defs>
  <clipPath id="clipCircle">
    <circle r="320" cx="320" cy="320"/>
  </clipPath>
  <g clip-path="url(#clipCircle)" transform="matrix(0.784736, 0, 0, 0.953574, -1.024435, -114.865486)" style="">
    <g>
      <g>
        <path d="M1423.69 1423.69C1423.69 2032.83 929.14 2527.37 320 2527.37C-289.14 2527.37 -783.69 2032.83 -783.69 1423.69C-783.69 814.55 -289.14 320 320 320C929.14 320 1423.69 814.55 1423.69 1423.69Z" transform="matrix(1, 0, 0, 1, 0, 0)" opacity="1" fill-opacity="0" stroke="#FFFFFF" stroke-width="23"/>
        <path d="M307.88 123.94L332.12 123.94L332.12 311.82L307.88 311.82L307.88 123.94Z" transform="matrix(1, 0, 0, 1, 0, 0)" opacity="1" fill="#FFFFFF" fill-opacity="1"/>
        <path d="M403.33 176.06L403.33 200.3L236.67 200.3L236.67 176.06L403.33 176.06Z" transform="matrix(1, 0, 0, 1, 0, 0)" opacity="1" fill="#FFFFFF" fill-opacity="1"/>
        <path d="M383.77 377.84C387.36 383.57 387.15 397.38 383.34 405.68C379.32 414.76 361.13 432.72 345.27 443.18C326.66 455.42 293.24 472.4 268.06 482.27C236.76 494.51 226.18 499.84 209.47 511.48C173.09 536.95 153 569.12 140.31 622.82C138.4 630.32 136.92 639.6 136.92 642.95C136.92 643.39 136.92 645.56 136.92 649.47C199.74 649.47 234.64 649.47 241.62 649.47C338.92 649.47 351.61 648.87 344.21 644.53C339.98 642.16 324.75 621.44 320.31 612.35C316.93 605.25 315.87 598.93 315.66 586.3C315.66 570.9 316.29 568.33 323.69 553.73C330.89 539.51 334.9 535.17 367.27 505.36C411.69 464.7 428.18 443.58 436.22 417.52C448.28 378.63 420.78 349.22 356.9 332.83C336.81 327.5 283.72 319.81 268.7 320C267.74 320 262.95 320 254.32 320L269.55 323.75C336.1 344.42 374.18 362.44 383.77 377.84Z" transform="matrix(1, 0, 0, 1, 0, 0)" opacity="1" fill="#FFFFFF" fill-opacity="1"/>
      </g>
    </g>
  </g>
</svg>
